<svg width="78" height="78" viewBox="0 0 78 78" fill="none" xmlns="http://www.w3.org/2000/svg">
<path d="M11.6349 12.1183C12.1214 11.365 13.1262 11.1483 13.88 11.6339C13.8804 11.6341 13.8816 11.6349 13 13L12.1183 14.365C11.3644 13.8781 11.148 12.8723 11.6349 12.1183Z" fill="#050505"/>
<path fill-rule="evenodd" clip-rule="evenodd" d="M27.625 57.9747V20.0252C24.4683 19.4047 21.7306 18.5924 19.4731 17.7787C17.1476 16.9404 15.3287 16.0996 14.0821 15.4626C13.4587 15.144 12.9779 14.8762 12.648 14.6848C12.4831 14.5891 12.3558 14.5124 12.2672 14.4581L12.1634 14.3937L12.1335 14.3747L12.1241 14.3687L12.1183 14.365C12.1178 14.3647 12.1183 14.365 13 13L13.88 11.6339L13.8952 11.6435L13.9666 11.6878C14.0332 11.7287 14.1377 11.7917 14.2791 11.8737C14.5618 12.0378 14.9918 12.2777 15.5609 12.5685C16.6995 13.1503 18.3926 13.9345 20.5752 14.7212C24.9413 16.2951 31.2538 17.875 39 17.875C46.7461 17.875 53.0586 16.2951 57.4247 14.7212C59.6073 13.9345 61.3004 13.1503 62.439 12.5685C63.0081 12.2777 63.4381 12.0378 63.7209 11.8737C63.8622 11.7917 63.9667 11.7287 64.0333 11.6878L64.1047 11.6435L64.1184 11.6349C64.8722 11.1487 65.8783 11.3647 66.365 12.1183C66.8519 12.8723 66.6355 13.8781 65.8816 14.365L65 13C65.8816 14.365 65.8821 14.3647 65.8816 14.365L65.8759 14.3687L65.8664 14.3747L65.8365 14.3937L65.7328 14.4581C65.6442 14.5124 65.5169 14.5891 65.3519 14.6848C65.022 14.8762 64.5412 15.144 63.9178 15.4626C62.6713 16.0996 60.8523 16.9404 58.5268 17.7787C56.2693 18.5924 53.5316 19.4047 50.375 20.0252V57.9747C53.5316 58.5952 56.2693 59.4075 58.5268 60.2212C60.8523 61.0595 62.6713 61.9003 63.9178 62.5373C64.5412 62.8559 65.022 63.1237 65.3519 63.3151C65.5169 63.4108 65.6442 63.4875 65.7328 63.5418L65.8365 63.6063L65.8664 63.6252L65.8759 63.6312L65.8792 63.6333C65.8797 63.6337 65.8816 63.6349 65 65L65.8792 63.6333C66.6331 64.1202 66.8519 65.1276 66.365 65.8816C65.8783 66.6352 64.873 66.8517 64.1192 66.3656L64.1047 66.3564L64.0333 66.3121C63.9667 66.2712 63.8622 66.2082 63.7209 66.1262C63.4381 65.9621 63.0081 65.7222 62.439 65.4314C61.3004 64.8496 59.6073 64.0654 57.4247 63.2787C53.0586 61.7048 46.7461 60.125 39 60.125C31.2538 60.125 24.9413 61.7048 20.5752 63.2787C18.3926 64.0654 16.6995 64.8496 15.5609 65.4314C14.9918 65.7222 14.5618 65.9621 14.2791 66.1262C14.1377 66.2082 14.0332 66.2712 13.9666 66.3121L13.8952 66.3564L13.8816 66.365L13 65C12.1183 63.6349 12.1189 63.6346 12.1194 63.6342L12.1241 63.6312L12.1335 63.6252L12.1634 63.6063L12.2672 63.5418C12.3558 63.4875 12.4831 63.4108 12.648 63.3151C12.9779 63.1237 13.4587 62.8559 14.0821 62.5373C15.3287 61.9003 17.1476 61.0595 19.4731 60.2212C21.7306 59.4075 24.4683 58.5952 27.625 57.9747ZM30.875 57.4313C33.3783 57.0852 36.0946 56.875 39 56.875C41.9053 56.875 44.6216 57.0852 47.125 57.4313V20.5686C44.6216 20.9147 41.9053 21.125 39 21.125C36.0946 21.125 33.3783 20.9147 30.875 20.5686V57.4313Z" fill="#050505"/>
<path d="M13.8816 66.365C13.8813 66.3652 13.8818 66.3648 13.8816 66.365V66.365Z" fill="#050505"/>
<path d="M13.8816 66.365C13.1277 66.8512 12.1216 66.6352 11.6349 65.8816C11.148 65.1276 11.3655 64.1211 12.1194 63.6342L13 65C13.8816 66.365 13.882 66.3647 13.8816 66.365Z" fill="#050505"/>
</svg>
