<svg width="78" height="78" viewBox="0 0 78 78" fill="none" xmlns="http://www.w3.org/2000/svg">
<path fill-rule="evenodd" clip-rule="evenodd" d="M8.73493 11.7311C9.43573 11.1705 10.4583 11.2841 11.019 11.9849L16.2796 18.5607L20.6567 13.3403C22.609 11.012 26.1923 11.0174 28.1374 13.3516L32.5001 18.5867L36.88 13.3308C38.829 10.992 42.4211 10.992 44.3701 13.3308L49.2451 19.1808C49.9752 20.0569 50.3751 21.1613 50.3751 22.3017V25.3598C51.4625 24.3175 52.4051 23.4817 53.2899 22.8496C54.9655 21.6528 56.5104 21.1251 58.5001 21.1251C59.7853 21.1251 61.2436 21.7316 62.5405 22.7338C63.8753 23.7652 65.1592 25.3023 66.0788 27.3713C67.93 31.5367 68.2466 37.6967 64.8838 46.1036C62.4298 52.2387 58.5222 56.3313 54.4245 58.9854C56.14 60.3328 58.5502 61.3845 61.9295 61.76C62.8215 61.8591 63.4642 62.6625 63.3651 63.5545C63.266 64.4465 62.4626 65.0892 61.5706 64.9901C56.9786 64.4799 53.6908 62.8439 51.417 60.6764C47.2695 62.6816 43.2412 63.3751 40.6251 63.3751C39.7276 63.3751 39.0001 62.6475 39.0001 61.7501C39.0001 60.8526 39.7276 60.1251 40.6251 60.1251C42.712 60.1251 45.9163 59.5933 49.2949 58.0827C49.2911 58.0767 49.2873 58.0707 49.2836 58.0647C47.2219 54.7841 46.84 51.1177 47.1251 48.6527V22.3017C47.1251 21.9216 46.9918 21.5535 46.7484 21.2614L41.8734 15.4114C41.2237 14.6318 40.0264 14.6318 39.3767 15.4114L34.1251 21.7134V55.2501C34.1251 56.1475 33.3975 56.8751 32.5001 56.8751C31.6026 56.8751 30.8751 56.1475 30.8751 55.2501V21.7134L25.6407 15.4322C24.9923 14.6541 23.7979 14.6523 23.1472 15.4284L17.8751 21.7162V55.25C17.8751 56.1475 17.1475 56.875 16.2501 56.875C15.3526 56.875 14.6251 56.1475 14.6251 55.25V21.6951L8.48115 14.0152C7.92051 13.3144 8.03413 12.2918 8.73493 11.7311ZM50.3751 48.7706C50.3753 48.7555 50.3753 48.7404 50.3751 48.7254V29.9234C52.5786 27.7222 53.978 26.3521 55.1789 25.4943C56.3471 24.6598 57.2397 24.3751 58.5001 24.3751C58.8398 24.3751 59.6159 24.581 60.5533 25.3054C61.4529 26.0006 62.4034 27.104 63.1089 28.6913C64.5076 31.8384 65.0035 37.0535 61.8663 44.8965C59.6062 50.5468 55.9492 54.231 52.179 56.5578C52.1299 56.4839 52.082 56.4097 52.0353 56.3354C50.784 54.3443 50.3283 52.1374 50.2934 50.3751H50.3751V48.7706Z" fill="#050505"/>
</svg>
