<svg width="50" height="50" viewBox="0 0 50 50" fill="none" xmlns="http://www.w3.org/2000/svg">
<rect width="50" height="50" rx="25" fill="#999999"/>
<path d="M25 29.8L25 20.2M20 28.6L20 32.2C20 33.473 20.5268 34.6939 21.4645 35.5941C22.4021 36.4943 23.6739 37 25 37C26.3261 37 27.5979 36.4943 28.5355 35.5941C29.4732 34.6939 30 33.473 30 32.2L30 28.6M20 21.4L20 17.8C20 16.527 20.5268 15.3061 21.4645 14.4059C22.4021 13.5057 23.6739 13 25 13C26.3261 13 27.5979 13.5057 28.5355 14.4059C29.4732 15.3061 30 16.527 30 17.8L30 21.4" stroke="white" stroke-width="2" stroke-linecap="round" stroke-linejoin="round"/>
</svg>
