<svg width="78" height="78" viewBox="0 0 78 78" fill="none" xmlns="http://www.w3.org/2000/svg">
<path d="M11.375 13L13.8756 13.8335C15.4371 14.354 16.8559 15.2309 18.0197 16.3947C20.008 18.383 21.125 21.0797 21.125 23.8915V24.375M21.125 47.125V24.375M21.125 24.375L26.3844 17.8008C27.2065 16.7731 28.1824 15.8784 29.2774 15.1484C31.3787 13.7475 33.8476 13 36.373 13H37.9868C39.7218 13 41.4329 13.4039 42.9847 14.1798L43.8226 14.5988C45.9371 15.656 47.545 17.51 48.2926 19.7527C48.5955 20.6616 48.75 21.6134 48.75 22.5715V42.7991C48.75 43.5151 48.8092 44.23 48.9269 44.9363L49.7158 49.6699C49.8974 50.7595 50.2213 51.8136 50.6746 52.8069M50.6746 52.8069L53.0251 49.5749C53.4244 49.0258 53.8662 48.5088 54.3462 48.0288L56.0727 46.3023C57.6269 44.7481 59.7348 43.875 61.9328 43.875H62.0247C64.8787 43.875 67.5235 45.3724 68.9918 47.8197C70.5357 50.3928 70.5357 53.6072 68.9918 56.1803C67.5235 58.6276 64.8787 60.125 62.0247 60.125H60.9943C58.3568 60.125 55.8272 59.0772 53.9622 57.2122L53.2103 56.4603C52.1474 55.3974 51.2913 54.1584 50.6746 52.8069ZM50.6746 52.8069L41.7109 65.1319C40.9974 66.1129 40.0587 66.9082 38.9737 67.4507C37.9223 67.9763 36.7631 68.25 35.5876 68.25H29.25" stroke="#050505" stroke-width="3.5" stroke-linecap="round"/>
</svg>
