<svg width="78" height="78" viewBox="0 0 78 78" fill="none" xmlns="http://www.w3.org/2000/svg">
<path fill-rule="evenodd" clip-rule="evenodd" d="M37.5935 9.75C33.9012 9.75 30.3602 11.2168 27.7493 13.8276C25.6193 15.9576 24.2377 18.7209 23.8117 21.7029L23.3678 24.8098C22.9409 27.7984 23.0979 30.8415 23.8301 33.7703L25.339 39.8061C24.0358 39.286 22.6138 39 21.125 39C14.8428 39 9.75 44.0928 9.75 50.375C9.75 56.6572 14.8428 61.75 21.125 61.75C27.4072 61.75 32.5 56.6572 32.5 50.375C32.5 47.2613 31.249 44.4398 29.2221 42.3858C29.1854 41.9416 29.1127 41.5008 29.0044 41.0676L26.983 32.982C26.3528 30.4611 26.2177 27.8418 26.5851 25.2694L27.029 22.1625C27.3555 19.8767 28.4147 17.7584 30.0474 16.1257C32.0488 14.1243 34.7632 13 37.5935 13H39.8558C41.2307 13 42.5929 13.2623 43.8695 13.773L44.318 13.9524C47.2583 15.1285 49.455 17.6451 50.2231 20.7173C51.3403 25.1863 51.16 29.8813 49.7033 34.2514L47.1887 41.7953L44.513 52.4978C44.0665 54.2839 44.0222 56.1468 44.3832 57.9521L44.5443 58.7576C45.2679 62.3754 47.7697 65.3831 51.1953 66.7533C53.7982 67.7944 56.7018 67.7944 59.3047 66.7533L59.616 66.6288C62.8266 65.3445 65.3089 62.7119 66.4024 59.4314L66.5416 59.0139C66.8254 58.1625 66.3653 57.2422 65.5139 56.9584C64.6625 56.6746 63.7422 57.1347 63.4584 57.9861L63.3192 58.4036C62.528 60.7772 60.732 62.682 58.4089 63.6112L58.0977 63.7357C56.2696 64.467 54.2304 64.467 52.4023 63.7357C49.9965 62.7734 48.2394 60.6611 47.7312 58.1202L47.5701 57.3147C47.3034 55.9813 47.3362 54.6053 47.666 53.2861L50.3113 42.7047L52.7865 35.2791C54.4387 30.3226 54.6432 24.9977 53.376 19.9291C52.3549 15.8444 49.4343 12.4985 45.525 10.9348L45.0765 10.7554C43.416 10.0912 41.6441 9.75 39.8558 9.75H37.5935ZM29.6562 50.375C29.6562 55.0867 25.8367 58.9062 21.125 58.9062C16.4133 58.9062 12.5938 55.0867 12.5938 50.375C12.5938 45.6633 16.4133 41.8437 21.125 41.8437C25.8367 41.8437 29.6562 45.6633 29.6562 50.375Z" fill="#050505"/>
</svg>
