<svg width="60" height="60" viewBox="0 0 60 60" fill="none" xmlns="http://www.w3.org/2000/svg">
<mask id="mask0_29_3676" style="mask-type:luminance" maskUnits="userSpaceOnUse" x="5" y="5" width="50" height="50">
<path d="M5 5H55V55H5V5Z" fill="white"/>
</mask>
<g mask="url(#mask0_29_3676)">
<path d="M34.7105 5.36851L33.2105 5.15798C28.7025 4.50708 24.1022 5.15102 19.9461 7.01473C15.7901 8.87845 12.2494 11.8851 9.73684 15.6843C7.06357 19.3158 5.46996 23.6283 5.13942 28.1256C4.80888 32.6228 5.75483 37.122 7.86842 41.1053C8.08473 41.5046 8.2194 41.9429 8.26458 42.3947C8.30976 42.8465 8.26455 43.3028 8.13158 43.7369C7.05263 47.4474 6.05263 51.1843 5 55.1054L6.31579 54.7106C9.86842 53.7632 13.4211 52.8159 16.9737 51.9475C17.7235 51.7916 18.5029 51.8649 19.2105 52.158C22.3979 53.7136 25.8811 54.5694 29.4264 54.668C32.9718 54.7666 36.4972 54.1057 39.7661 52.7296C43.035 51.3536 45.9717 49.2943 48.3792 46.6899C50.7867 44.0854 52.6093 40.9962 53.7246 37.6294C54.8399 34.2626 55.2222 30.6962 54.8457 27.1696C54.4693 23.6429 53.3428 20.2376 51.542 17.1821C49.7411 14.1266 47.3075 11.4917 44.4045 9.4541C41.5015 7.41655 38.1962 6.02352 34.7105 5.36851ZM41.3421 39.8948C40.3857 40.7511 39.2194 41.3386 37.962 41.5975C36.7046 41.8564 35.4011 41.7773 34.1842 41.3685C28.6709 39.8137 23.8875 36.3543 20.6842 31.6053C19.461 29.9253 18.4778 28.0831 17.7632 26.1317C17.3759 24.9995 17.3061 23.7829 17.5612 22.6139C17.8164 21.4448 18.3868 20.368 19.2105 19.5001C19.6115 18.9883 20.1574 18.6091 20.777 18.412C21.3966 18.2148 22.0612 18.2089 22.6842 18.3948C23.2105 18.5264 23.5789 19.2896 24.0526 19.8685C24.4386 20.9562 24.886 22.0176 25.3947 23.0527C25.7801 23.5804 25.941 24.239 25.8424 24.8849C25.7438 25.5308 25.3936 26.1114 24.8684 26.5001C23.6842 27.5527 23.8684 28.4211 24.7105 29.6053C26.5712 32.2883 29.1403 34.4019 32.1316 35.7106C32.9737 36.079 33.6053 36.158 34.1579 35.2896C34.3947 34.9475 34.7105 34.658 34.9737 34.3422C36.5 32.4211 36.0263 32.4475 38.4474 33.5001C39.2193 33.8246 39.9649 34.2018 40.6842 34.6317C41.3947 35.0527 42.4737 35.5001 42.6316 36.1317C42.7835 36.8168 42.7435 37.5306 42.516 38.1946C42.2885 38.8585 41.8823 39.4468 41.3421 39.8948Z" fill="#050505"/>
</g>
</svg>
