<svg width="78" height="78" viewBox="0 0 78 78" fill="none" xmlns="http://www.w3.org/2000/svg">
<path d="M44.6436 15.3159C48.2965 11.0133 51.9246 9.19768 54.8028 8.50511C56.2296 8.16178 57.4396 8.10224 58.3344 8.13156C58.7817 8.14621 59.1462 8.18295 59.4121 8.21572C59.5171 8.22866 59.6103 8.24148 59.6755 8.25045L59.7157 8.25596L59.7296 8.25783C61.8732 8.2825 64.3402 9.26452 66.2727 10.8579C68.2545 12.4919 69.875 14.942 69.875 17.989C69.875 20.5955 69.4166 22.9801 68.0987 24.9671C66.7651 26.9777 64.6884 28.3771 61.8546 29.2672C60.9984 29.5362 60.0863 29.0601 59.8173 28.2039C59.5484 27.3477 60.0245 26.4355 60.8807 26.1666C63.2086 25.4354 64.5731 24.4028 65.3903 23.1707C66.2231 21.9151 66.625 20.2464 66.625 17.989C66.625 16.172 65.6646 14.5688 64.2052 13.3654C62.7214 12.142 60.9256 11.5074 59.6471 11.5074C59.4941 11.5074 59.3237 11.4829 59.2843 11.4773L59.2775 11.4763L59.2242 11.469C59.1601 11.4602 59.0946 11.4512 59.0146 11.4413C58.818 11.4171 58.5538 11.3905 58.228 11.3798C57.5766 11.3585 56.663 11.4003 55.5631 11.6649C53.3879 12.1883 50.3506 13.6154 47.1211 17.4193C44.8828 20.0558 43.2461 23.6124 42.1699 27.1017C41.0937 30.5911 40.625 33.8589 40.625 35.8235V68.25C40.625 69.1475 39.8975 69.875 39 69.875C38.1025 69.875 37.375 69.1475 37.375 68.25V35.75C37.375 33.7689 36.9302 30.4845 35.9123 26.9819C34.8936 23.4767 33.3451 19.9076 31.2311 17.2651C28.1826 13.4545 25.3299 12.0424 23.314 11.5276C22.293 11.2669 21.4471 11.2262 20.8465 11.2471C20.5458 11.2575 20.3021 11.2836 20.1203 11.3073C20.0461 11.317 19.9858 11.3258 19.9255 11.3346L19.8743 11.3421L19.8699 11.3427C19.8381 11.3476 19.6609 11.375 19.5 11.375C18.3466 11.375 16.6821 11.9882 15.2888 13.2073C13.9263 14.3995 13 16.0139 13 17.875C13 20.1518 13.3829 21.8403 14.1749 23.1075C14.9462 24.3416 16.2219 25.3611 18.3889 26.0834C19.2403 26.3672 19.7004 27.2875 19.4166 28.1389C19.1328 28.9903 18.2125 29.4504 17.3611 29.1666C14.6531 28.2639 12.6788 26.8459 11.4189 24.83C10.1796 22.8472 9.75 20.4732 9.75 17.875C9.75 14.8611 11.2612 12.413 13.1487 10.7614C14.9784 9.16045 17.3337 8.15458 19.4083 8.12564L24.1182 8.37865C26.8749 9.08261 30.3174 10.9205 33.7689 15.2349C36.2489 18.3348 37.9503 22.349 39.0332 26.0749C39.0417 26.1041 39.0501 26.1333 39.0585 26.1625C39.0604 26.1563 39.0624 26.1501 39.0643 26.1439C40.2132 22.4185 42.0177 18.4089 44.6436 15.3159Z" fill="#050505"/>
</svg>
