<svg width="240" height="240" viewBox="0 0 240 240" fill="none" xmlns="http://www.w3.org/2000/svg">
<path d="M137.365 47.126C148.605 33.8869 159.768 28.3006 168.624 26.1696C173.014 25.1132 176.737 24.93 179.49 25.0202C180.867 25.0653 181.988 25.1783 182.807 25.2791C183.13 25.3189 183.416 25.3584 183.617 25.386L183.741 25.4029L183.783 25.4087C190.379 25.4846 197.97 28.5062 203.916 33.4089C210.014 38.4366 215 45.9752 215 55.3507C215 63.3707 213.59 70.7079 209.534 76.822C205.431 83.0083 199.041 87.3142 190.322 90.053C187.687 90.8805 184.881 89.4157 184.053 86.7812C183.226 84.1466 184.691 81.3401 187.325 80.5126C194.488 78.2627 198.686 75.0856 201.201 71.2946C203.763 67.4312 205 62.2967 205 55.3507C205 49.7601 202.045 44.827 197.554 41.1245C192.989 37.36 187.463 35.4072 183.529 35.4072C183.059 35.4072 182.535 35.332 182.413 35.3146L182.392 35.3117L182.228 35.2892C182.031 35.2621 181.83 35.2344 181.583 35.2041C180.978 35.1295 180.166 35.0477 179.163 35.0148C177.159 34.9491 174.348 35.0777 170.963 35.8921C164.271 37.5026 154.925 41.8936 144.988 53.5979C138.101 61.7101 133.065 72.6534 129.754 83.3899C126.442 94.1265 125 104.181 125 110.226V210C125 212.761 122.761 215 120 215C117.239 215 115 212.761 115 210V110C115 103.904 113.632 93.7985 110.499 83.0212C107.365 72.236 102.6 61.2541 96.0956 53.1234C86.7156 41.3984 77.9382 37.0535 71.7355 35.4695C68.5939 34.6673 65.9912 34.5421 64.143 34.6063C63.2178 34.6385 62.4679 34.7186 61.9086 34.7918C61.6804 34.8216 61.4948 34.8487 61.3092 34.8757L61.1517 34.8986L61.1381 34.9007C61.0404 34.9158 60.4952 35 60 35C56.4511 35 51.3296 36.8867 47.0425 40.6379C42.8501 44.3063 40 49.2736 40 55C40 62.0055 41.1781 67.201 43.615 71.1C45.9883 74.8972 49.9137 78.0341 56.5811 80.2566C59.2009 81.1298 60.6167 83.9614 59.7434 86.5811C58.8702 89.2009 56.0386 90.6167 53.4189 89.7434C45.0863 86.9659 39.0117 82.6028 35.135 76.4C31.3219 70.299 30 62.9945 30 55C30 45.7264 34.6499 38.1937 40.4575 33.1121C46.0873 28.186 53.3344 25.091 59.7178 25.002L74.2097 25.7804C82.6919 27.9465 93.2844 33.6015 103.904 46.8765C111.535 56.4149 116.77 68.7663 120.102 80.2305C120.128 80.3204 120.154 80.4102 120.18 80.5001C120.186 80.4809 120.192 80.4618 120.198 80.4427C123.733 68.9801 129.285 56.6428 137.365 47.126Z" fill="white"/>
</svg>
