<svg width="1203" height="74" viewBox="0 0 1203 74" fill="none" xmlns="http://www.w3.org/2000/svg">
<rect x="1" y="1" width="1200" height="24" rx="8" stroke="#050505" stroke-width="2"/>
<path d="M2 8C2 3.58172 5.58172 0 10 0H202.6C203.925 0 205 1.07452 205 2.4C205 14.3294 195.329 24 183.4 24H10C5.58172 24 2 20.4183 2 16V8Z" fill="#050505"/>
<path d="M14 70.1591C13.1439 70.1591 12.4148 69.9261 11.8125 69.4602C11.2102 68.9905 10.75 68.3106 10.4318 67.4205C10.1136 66.5265 9.95455 65.447 9.95455 64.1818C9.95455 62.9242 10.1136 61.8504 10.4318 60.9602C10.7538 60.0663 11.2159 59.3845 11.8182 58.9148C12.4242 58.4413 13.1515 58.2045 14 58.2045C14.8485 58.2045 15.5739 58.4413 16.1761 58.9148C16.7822 59.3845 17.2443 60.0663 17.5625 60.9602C17.8845 61.8504 18.0455 62.9242 18.0455 64.1818C18.0455 65.447 17.8864 66.5265 17.5682 67.4205C17.25 68.3106 16.7898 68.9905 16.1875 69.4602C15.5852 69.9261 14.8561 70.1591 14 70.1591ZM14 68.9091C14.8485 68.9091 15.5076 68.5 15.9773 67.6818C16.447 66.8636 16.6818 65.697 16.6818 64.1818C16.6818 63.1742 16.5739 62.3163 16.358 61.608C16.1458 60.8996 15.839 60.3598 15.4375 59.9886C15.0398 59.6174 14.5606 59.4318 14 59.4318C13.1591 59.4318 12.5019 59.8466 12.0284 60.6761C11.5549 61.5019 11.3182 62.6705 11.3182 64.1818C11.3182 65.1894 11.4242 66.0455 11.6364 66.75C11.8485 67.4545 12.1534 67.9905 12.5511 68.358C12.9527 68.7254 13.4356 68.9091 14 68.9091Z" fill="#050505"/>
<path d="M298.783 70V68.9773L302.624 64.7727C303.074 64.2803 303.446 63.8523 303.737 63.4886C304.029 63.1212 304.245 62.7765 304.385 62.4545C304.529 62.1288 304.601 61.7879 304.601 61.4318C304.601 61.0227 304.502 60.6686 304.305 60.3693C304.112 60.0701 303.847 59.839 303.51 59.6761C303.173 59.5133 302.794 59.4318 302.374 59.4318C301.927 59.4318 301.536 59.5246 301.203 59.7102C300.874 59.892 300.618 60.1477 300.436 60.4773C300.258 60.8068 300.169 61.1932 300.169 61.6364L298.828 61.6364C298.828 60.9545 298.985 60.3561 299.3 59.8409C299.614 59.3258 300.042 58.9242 300.584 58.6364C301.129 58.3485 301.741 58.2045 302.419 58.2045C303.101 58.2045 303.705 58.3485 304.232 58.6364C304.758 58.9242 305.171 59.3125 305.47 59.8011C305.769 60.2898 305.919 60.8333 305.919 61.4318C305.919 61.8598 305.841 62.2784 305.686 62.6875C305.535 63.0928 305.269 63.5455 304.891 64.0455C304.516 64.5417 303.995 65.1477 303.328 65.8636L300.714 68.6591V68.75L306.124 68.75V70L298.783 70ZM312.107 70.1591C311.44 70.1591 310.839 70.0265 310.305 69.7614C309.771 69.4962 309.343 69.1326 309.021 68.6705C308.699 68.2083 308.523 67.6818 308.493 67.0909L309.857 67.0909C309.91 67.6174 310.148 68.053 310.572 68.3977C311 68.7386 311.512 68.9091 312.107 68.9091C312.584 68.9091 313.008 68.7973 313.379 68.5739C313.754 68.3504 314.048 68.0436 314.26 67.6534C314.476 67.2595 314.584 66.8144 314.584 66.3182C314.584 65.8106 314.472 65.358 314.249 64.9602C314.029 64.5587 313.726 64.2424 313.339 64.0114C312.953 63.7803 312.512 63.6629 312.016 63.6591C311.66 63.6553 311.294 63.7102 310.919 63.8239C310.544 63.9337 310.235 64.0758 309.993 64.25L308.675 64.0909L309.379 58.3636L315.425 58.3636V59.6136L310.561 59.6136L310.152 63.0455H310.22C310.459 62.8561 310.758 62.6989 311.118 62.5739C311.478 62.4489 311.853 62.3864 312.243 62.3864C312.955 62.3864 313.589 62.5568 314.146 62.8977C314.707 63.2348 315.146 63.697 315.464 64.2841C315.786 64.8712 315.947 65.5417 315.947 66.2955C315.947 67.0379 315.781 67.7008 315.447 68.2841C315.118 68.8636 314.663 69.322 314.084 69.6591C313.504 69.9924 312.845 70.1591 312.107 70.1591Z" fill="#050505"/>
<path d="M596.107 70.1591C595.44 70.1591 594.839 70.0265 594.305 69.7614C593.771 69.4962 593.343 69.1326 593.021 68.6705C592.699 68.2083 592.523 67.6818 592.493 67.0909H593.857C593.91 67.6174 594.148 68.053 594.572 68.3977C595 68.7386 595.512 68.9091 596.107 68.9091C596.584 68.9091 597.008 68.7973 597.379 68.5739C597.754 68.3504 598.048 68.0436 598.26 67.6534C598.476 67.2595 598.584 66.8144 598.584 66.3182C598.584 65.8106 598.472 65.358 598.249 64.9602C598.029 64.5587 597.726 64.2424 597.339 64.0114C596.953 63.7803 596.512 63.6629 596.016 63.6591C595.66 63.6553 595.294 63.7102 594.919 63.8239C594.544 63.9337 594.235 64.0758 593.993 64.25L592.675 64.0909L593.379 58.3636L599.425 58.3636V59.6136L594.561 59.6136L594.152 63.0455H594.22C594.459 62.8561 594.758 62.6989 595.118 62.5739C595.478 62.4489 595.853 62.3864 596.243 62.3864C596.955 62.3864 597.589 62.5568 598.146 62.8977C598.707 63.2348 599.146 63.697 599.464 64.2841C599.786 64.8712 599.947 65.5417 599.947 66.2955C599.947 67.0379 599.781 67.7008 599.447 68.2841C599.118 68.8636 598.663 69.322 598.084 69.6591C597.504 69.9924 596.845 70.1591 596.107 70.1591ZM606 70.1591C605.144 70.1591 604.415 69.9261 603.812 69.4602C603.21 68.9905 602.75 68.3106 602.432 67.4205C602.114 66.5265 601.955 65.447 601.955 64.1818C601.955 62.9242 602.114 61.8504 602.432 60.9602C602.754 60.0663 603.216 59.3845 603.818 58.9148C604.424 58.4413 605.152 58.2045 606 58.2045C606.848 58.2045 607.574 58.4413 608.176 58.9148C608.782 59.3845 609.244 60.0663 609.562 60.9602C609.884 61.8504 610.045 62.9242 610.045 64.1818C610.045 65.447 609.886 66.5265 609.568 67.4205C609.25 68.3106 608.79 68.9905 608.188 69.4602C607.585 69.9261 606.856 70.1591 606 70.1591ZM606 68.9091C606.848 68.9091 607.508 68.5 607.977 67.6818C608.447 66.8636 608.682 65.697 608.682 64.1818C608.682 63.1742 608.574 62.3163 608.358 61.608C608.146 60.8996 607.839 60.3598 607.438 59.9886C607.04 59.6174 606.561 59.4318 606 59.4318C605.159 59.4318 604.502 59.8466 604.028 60.6761C603.555 61.5019 603.318 62.6705 603.318 64.1818C603.318 65.1894 603.424 66.0455 603.636 66.75C603.848 67.4545 604.153 67.9905 604.551 68.358C604.953 68.7254 605.436 68.9091 606 68.9091Z" fill="#050505"/>
<path d="M886.849 70L892.054 59.7045V59.6136L886.054 59.6136V58.3636L893.509 58.3636V59.6818L888.327 70H886.849ZM899.107 70.1591C898.44 70.1591 897.839 70.0265 897.305 69.7614C896.771 69.4962 896.343 69.1326 896.021 68.6705C895.699 68.2083 895.523 67.6818 895.493 67.0909H896.857C896.91 67.6174 897.148 68.053 897.572 68.3977C898 68.7386 898.512 68.9091 899.107 68.9091C899.584 68.9091 900.008 68.7973 900.379 68.5739C900.754 68.3504 901.048 68.0436 901.26 67.6534C901.476 67.2595 901.584 66.8144 901.584 66.3182C901.584 65.8106 901.472 65.358 901.249 64.9602C901.029 64.5587 900.726 64.2424 900.339 64.0114C899.953 63.7803 899.512 63.6629 899.016 63.6591C898.66 63.6553 898.294 63.7102 897.919 63.8239C897.544 63.9337 897.235 64.0758 896.993 64.25L895.675 64.0909L896.379 58.3636L902.425 58.3636V59.6136L897.561 59.6136L897.152 63.0455H897.22C897.459 62.8561 897.758 62.6989 898.118 62.5739C898.478 62.4489 898.853 62.3864 899.243 62.3864C899.955 62.3864 900.589 62.5568 901.146 62.8977C901.707 63.2348 902.146 63.697 902.464 64.2841C902.786 64.8712 902.947 65.5417 902.947 66.2955C902.947 67.0379 902.781 67.7008 902.447 68.2841C902.118 68.8636 901.663 69.322 901.084 69.6591C900.504 69.9924 899.845 70.1591 899.107 70.1591Z" fill="#050505"/>
<path d="M1180.86 58.3636V70L1179.45 70V59.8409H1179.38L1176.54 61.7273V60.2955L1179.45 58.3636H1180.86ZM1188 70.1591C1187.14 70.1591 1186.41 69.9261 1185.81 69.4602C1185.21 68.9905 1184.75 68.3106 1184.43 67.4205C1184.11 66.5265 1183.95 65.447 1183.95 64.1818C1183.95 62.9242 1184.11 61.8504 1184.43 60.9602C1184.75 60.0663 1185.22 59.3845 1185.82 58.9148C1186.42 58.4413 1187.15 58.2045 1188 58.2045C1188.85 58.2045 1189.57 58.4413 1190.18 58.9148C1190.78 59.3845 1191.24 60.0663 1191.56 60.9602C1191.88 61.8504 1192.05 62.9242 1192.05 64.1818C1192.05 65.447 1191.89 66.5265 1191.57 67.4205C1191.25 68.3106 1190.79 68.9905 1190.19 69.4602C1189.59 69.9261 1188.86 70.1591 1188 70.1591ZM1188 68.9091C1188.85 68.9091 1189.51 68.5 1189.98 67.6818C1190.45 66.8636 1190.68 65.697 1190.68 64.1818C1190.68 63.1742 1190.57 62.3163 1190.36 61.608C1190.15 60.8996 1189.84 60.3598 1189.44 59.9886C1189.04 59.6174 1188.56 59.4318 1188 59.4318C1187.16 59.4318 1186.5 59.8466 1186.03 60.6761C1185.55 61.5019 1185.32 62.6705 1185.32 64.1818C1185.32 65.1894 1185.42 66.0455 1185.64 66.75C1185.85 67.4545 1186.15 67.9905 1186.55 68.358C1186.95 68.7254 1187.44 68.9091 1188 68.9091ZM1198 70.1591C1197.14 70.1591 1196.41 69.9261 1195.81 69.4602C1195.21 68.9905 1194.75 68.3106 1194.43 67.4205C1194.11 66.5265 1193.95 65.447 1193.95 64.1818C1193.95 62.9242 1194.11 61.8504 1194.43 60.9602C1194.75 60.0663 1195.22 59.3845 1195.82 58.9148C1196.42 58.4413 1197.15 58.2045 1198 58.2045C1198.85 58.2045 1199.57 58.4413 1200.18 58.9148C1200.78 59.3845 1201.24 60.0663 1201.56 60.9602C1201.88 61.8504 1202.05 62.9242 1202.05 64.1818C1202.05 65.447 1201.89 66.5265 1201.57 67.4205C1201.25 68.3106 1200.79 68.9905 1200.19 69.4602C1199.59 69.9261 1198.86 70.1591 1198 70.1591ZM1198 68.9091C1198.85 68.9091 1199.51 68.5 1199.98 67.6818C1200.45 66.8636 1200.68 65.697 1200.68 64.1818C1200.68 63.1742 1200.57 62.3163 1200.36 61.608C1200.15 60.8996 1199.84 60.3598 1199.44 59.9886C1199.04 59.6174 1198.56 59.4318 1198 59.4318C1197.16 59.4318 1196.5 59.8466 1196.03 60.6761C1195.55 61.5019 1195.32 62.6705 1195.32 64.1818C1195.32 65.1894 1195.42 66.0455 1195.64 66.75C1195.85 67.4545 1196.15 67.9905 1196.55 68.358C1196.95 68.7254 1197.44 68.9091 1198 68.9091Z" fill="#050505"/>
<path d="M14 38L1189 38.0001" stroke="#050505"/>
<path d="M1188.63 48.8975L1188.63 38.0011" stroke="#050505"/>
<path d="M601 49L601 38.1037" stroke="#050505"/>
<path d="M14 48.8975L14 38.0011" stroke="#050505"/>
<path d="M307 48.8975L307 38.0011" stroke="#050505"/>
<path d="M895 49L895 38.1037" stroke="#050505"/>
</svg>
