<svg width="1203" height="72" viewBox="0 0 1203 72" fill="none" xmlns="http://www.w3.org/2000/svg">
<rect x="1" y="1" width="1200" height="24" rx="8" stroke="#050505" stroke-width="2"/>
<path d="M2 8C2 3.58172 5.58172 0 10 0H703.6C704.925 0 706 1.07452 706 2.4C706 14.3294 696.329 24 684.4 24H9.99999C5.58171 24 2 20.4183 2 16V8Z" fill="#050505"/>
<path d="M14 68.1591C13.1439 68.1591 12.4148 67.9261 11.8125 67.4602C11.2102 66.9905 10.75 66.3106 10.4318 65.4205C10.1136 64.5265 9.95455 63.447 9.95455 62.1818C9.95455 60.9242 10.1136 59.8504 10.4318 58.9602C10.7538 58.0663 11.2159 57.3845 11.8182 56.9148C12.4242 56.4413 13.1515 56.2045 14 56.2045C14.8485 56.2045 15.5739 56.4413 16.1761 56.9148C16.7822 57.3845 17.2443 58.0663 17.5625 58.9602C17.8845 59.8504 18.0455 60.9242 18.0455 62.1818C18.0455 63.447 17.8864 64.5265 17.5682 65.4205C17.25 66.3106 16.7898 66.9905 16.1875 67.4602C15.5852 67.9261 14.8561 68.1591 14 68.1591ZM14 66.9091C14.8485 66.9091 15.5076 66.5 15.9773 65.6818C16.447 64.8636 16.6818 63.697 16.6818 62.1818C16.6818 61.1742 16.5739 60.3163 16.358 59.608C16.1458 58.8996 15.839 58.3598 15.4375 57.9886C15.0398 57.6174 14.5606 57.4318 14 57.4318C13.1591 57.4318 12.5019 57.8466 12.0284 58.6761C11.5549 59.5019 11.3182 60.6705 11.3182 62.1818C11.3182 63.1894 11.4242 64.0455 11.6364 64.75C11.8485 65.4545 12.1534 65.9905 12.5511 66.358C12.9527 66.7254 13.4356 66.9091 14 66.9091Z" fill="#050505"/>
<path d="M298.783 68V66.9773L302.624 62.7727C303.074 62.2803 303.446 61.8523 303.737 61.4886C304.029 61.1212 304.245 60.7765 304.385 60.4545C304.529 60.1288 304.601 59.7879 304.601 59.4318C304.601 59.0227 304.502 58.6686 304.305 58.3693C304.112 58.0701 303.847 57.839 303.51 57.6761C303.173 57.5133 302.794 57.4318 302.374 57.4318C301.927 57.4318 301.536 57.5246 301.203 57.7102C300.874 57.892 300.618 58.1477 300.436 58.4773C300.258 58.8068 300.169 59.1932 300.169 59.6364L298.828 59.6364C298.828 58.9545 298.985 58.3561 299.3 57.8409C299.614 57.3258 300.042 56.9242 300.584 56.6364C301.129 56.3485 301.741 56.2045 302.419 56.2045C303.101 56.2045 303.705 56.3485 304.232 56.6364C304.758 56.9242 305.171 57.3125 305.47 57.8011C305.769 58.2898 305.919 58.8333 305.919 59.4318C305.919 59.8598 305.841 60.2784 305.686 60.6875C305.535 61.0928 305.269 61.5455 304.891 62.0455C304.516 62.5417 303.995 63.1477 303.328 63.8636L300.714 66.6591V66.75L306.124 66.75V68L298.783 68ZM312.107 68.1591C311.44 68.1591 310.839 68.0265 310.305 67.7614C309.771 67.4962 309.343 67.1326 309.021 66.6705C308.699 66.2083 308.523 65.6818 308.493 65.0909L309.857 65.0909C309.91 65.6174 310.148 66.053 310.572 66.3977C311 66.7386 311.512 66.9091 312.107 66.9091C312.584 66.9091 313.008 66.7973 313.379 66.5739C313.754 66.3504 314.048 66.0436 314.26 65.6534C314.476 65.2595 314.584 64.8144 314.584 64.3182C314.584 63.8106 314.472 63.358 314.249 62.9602C314.029 62.5587 313.726 62.2424 313.339 62.0114C312.953 61.7803 312.512 61.6629 312.016 61.6591C311.66 61.6553 311.294 61.7102 310.919 61.8239C310.544 61.9337 310.235 62.0758 309.993 62.25L308.675 62.0909L309.379 56.3636L315.425 56.3636V57.6136L310.561 57.6136L310.152 61.0455H310.22C310.459 60.8561 310.758 60.6989 311.118 60.5739C311.478 60.4489 311.853 60.3864 312.243 60.3864C312.955 60.3864 313.589 60.5568 314.146 60.8977C314.707 61.2348 315.146 61.697 315.464 62.2841C315.786 62.8712 315.947 63.5417 315.947 64.2955C315.947 65.0379 315.781 65.7008 315.447 66.2841C315.118 66.8636 314.663 67.322 314.084 67.6591C313.504 67.9924 312.845 68.1591 312.107 68.1591Z" fill="#050505"/>
<path d="M596.107 68.1591C595.44 68.1591 594.839 68.0265 594.305 67.7614C593.771 67.4962 593.343 67.1326 593.021 66.6705C592.699 66.2083 592.523 65.6818 592.493 65.0909H593.857C593.91 65.6174 594.148 66.053 594.572 66.3977C595 66.7386 595.512 66.9091 596.107 66.9091C596.584 66.9091 597.008 66.7973 597.379 66.5739C597.754 66.3504 598.048 66.0436 598.26 65.6534C598.476 65.2595 598.584 64.8144 598.584 64.3182C598.584 63.8106 598.472 63.358 598.249 62.9602C598.029 62.5587 597.726 62.2424 597.339 62.0114C596.953 61.7803 596.512 61.6629 596.016 61.6591C595.66 61.6553 595.294 61.7102 594.919 61.8239C594.544 61.9337 594.235 62.0758 593.993 62.25L592.675 62.0909L593.379 56.3636L599.425 56.3636V57.6136L594.561 57.6136L594.152 61.0455H594.22C594.459 60.8561 594.758 60.6989 595.118 60.5739C595.478 60.4489 595.853 60.3864 596.243 60.3864C596.955 60.3864 597.589 60.5568 598.146 60.8977C598.707 61.2348 599.146 61.697 599.464 62.2841C599.786 62.8712 599.947 63.5417 599.947 64.2955C599.947 65.0379 599.781 65.7008 599.447 66.2841C599.118 66.8636 598.663 67.322 598.084 67.6591C597.504 67.9924 596.845 68.1591 596.107 68.1591ZM606 68.1591C605.144 68.1591 604.415 67.9261 603.812 67.4602C603.21 66.9905 602.75 66.3106 602.432 65.4205C602.114 64.5265 601.955 63.447 601.955 62.1818C601.955 60.9242 602.114 59.8504 602.432 58.9602C602.754 58.0663 603.216 57.3845 603.818 56.9148C604.424 56.4413 605.152 56.2045 606 56.2045C606.848 56.2045 607.574 56.4413 608.176 56.9148C608.782 57.3845 609.244 58.0663 609.562 58.9602C609.884 59.8504 610.045 60.9242 610.045 62.1818C610.045 63.447 609.886 64.5265 609.568 65.4205C609.25 66.3106 608.79 66.9905 608.188 67.4602C607.585 67.9261 606.856 68.1591 606 68.1591ZM606 66.9091C606.848 66.9091 607.508 66.5 607.977 65.6818C608.447 64.8636 608.682 63.697 608.682 62.1818C608.682 61.1742 608.574 60.3163 608.358 59.608C608.146 58.8996 607.839 58.3598 607.438 57.9886C607.04 57.6174 606.561 57.4318 606 57.4318C605.159 57.4318 604.502 57.8466 604.028 58.6761C603.555 59.5019 603.318 60.6705 603.318 62.1818C603.318 63.1894 603.424 64.0455 603.636 64.75C603.848 65.4545 604.153 65.9905 604.551 66.358C604.953 66.7254 605.436 66.9091 606 66.9091Z" fill="#050505"/>
<path d="M886.849 68L892.054 57.7045V57.6136L886.054 57.6136V56.3636L893.509 56.3636V57.6818L888.327 68H886.849ZM899.107 68.1591C898.44 68.1591 897.839 68.0265 897.305 67.7614C896.771 67.4962 896.343 67.1326 896.021 66.6705C895.699 66.2083 895.523 65.6818 895.493 65.0909H896.857C896.91 65.6174 897.148 66.053 897.572 66.3977C898 66.7386 898.512 66.9091 899.107 66.9091C899.584 66.9091 900.008 66.7973 900.379 66.5739C900.754 66.3504 901.048 66.0436 901.26 65.6534C901.476 65.2595 901.584 64.8144 901.584 64.3182C901.584 63.8106 901.472 63.358 901.249 62.9602C901.029 62.5587 900.726 62.2424 900.339 62.0114C899.953 61.7803 899.512 61.6629 899.016 61.6591C898.66 61.6553 898.294 61.7102 897.919 61.8239C897.544 61.9337 897.235 62.0758 896.993 62.25L895.675 62.0909L896.379 56.3636L902.425 56.3636V57.6136L897.561 57.6136L897.152 61.0455H897.22C897.459 60.8561 897.758 60.6989 898.118 60.5739C898.478 60.4489 898.853 60.3864 899.243 60.3864C899.955 60.3864 900.589 60.5568 901.146 60.8977C901.707 61.2348 902.146 61.697 902.464 62.2841C902.786 62.8712 902.947 63.5417 902.947 64.2955C902.947 65.0379 902.781 65.7008 902.447 66.2841C902.118 66.8636 901.663 67.322 901.084 67.6591C900.504 67.9924 899.845 68.1591 899.107 68.1591Z" fill="#050505"/>
<path d="M1180.86 56.3636V68L1179.45 68V57.8409H1179.38L1176.54 59.7273V58.2955L1179.45 56.3636H1180.86ZM1188 68.1591C1187.14 68.1591 1186.41 67.9261 1185.81 67.4602C1185.21 66.9905 1184.75 66.3106 1184.43 65.4205C1184.11 64.5265 1183.95 63.447 1183.95 62.1818C1183.95 60.9242 1184.11 59.8504 1184.43 58.9602C1184.75 58.0663 1185.22 57.3845 1185.82 56.9148C1186.42 56.4413 1187.15 56.2045 1188 56.2045C1188.85 56.2045 1189.57 56.4413 1190.18 56.9148C1190.78 57.3845 1191.24 58.0663 1191.56 58.9602C1191.88 59.8504 1192.05 60.9242 1192.05 62.1818C1192.05 63.447 1191.89 64.5265 1191.57 65.4205C1191.25 66.3106 1190.79 66.9905 1190.19 67.4602C1189.59 67.9261 1188.86 68.1591 1188 68.1591ZM1188 66.9091C1188.85 66.9091 1189.51 66.5 1189.98 65.6818C1190.45 64.8636 1190.68 63.697 1190.68 62.1818C1190.68 61.1742 1190.57 60.3163 1190.36 59.608C1190.15 58.8996 1189.84 58.3598 1189.44 57.9886C1189.04 57.6174 1188.56 57.4318 1188 57.4318C1187.16 57.4318 1186.5 57.8466 1186.03 58.6761C1185.55 59.5019 1185.32 60.6705 1185.32 62.1818C1185.32 63.1894 1185.42 64.0455 1185.64 64.75C1185.85 65.4545 1186.15 65.9905 1186.55 66.358C1186.95 66.7254 1187.44 66.9091 1188 66.9091ZM1198 68.1591C1197.14 68.1591 1196.41 67.9261 1195.81 67.4602C1195.21 66.9905 1194.75 66.3106 1194.43 65.4205C1194.11 64.5265 1193.95 63.447 1193.95 62.1818C1193.95 60.9242 1194.11 59.8504 1194.43 58.9602C1194.75 58.0663 1195.22 57.3845 1195.82 56.9148C1196.42 56.4413 1197.15 56.2045 1198 56.2045C1198.85 56.2045 1199.57 56.4413 1200.18 56.9148C1200.78 57.3845 1201.24 58.0663 1201.56 58.9602C1201.88 59.8504 1202.05 60.9242 1202.05 62.1818C1202.05 63.447 1201.89 64.5265 1201.57 65.4205C1201.25 66.3106 1200.79 66.9905 1200.19 67.4602C1199.59 67.9261 1198.86 68.1591 1198 68.1591ZM1198 66.9091C1198.85 66.9091 1199.51 66.5 1199.98 65.6818C1200.45 64.8636 1200.68 63.697 1200.68 62.1818C1200.68 61.1742 1200.57 60.3163 1200.36 59.608C1200.15 58.8996 1199.84 58.3598 1199.44 57.9886C1199.04 57.6174 1198.56 57.4318 1198 57.4318C1197.16 57.4318 1196.5 57.8466 1196.03 58.6761C1195.55 59.5019 1195.32 60.6705 1195.32 62.1818C1195.32 63.1894 1195.42 64.0455 1195.64 64.75C1195.85 65.4545 1196.15 65.9905 1196.55 66.358C1196.95 66.7254 1197.44 66.9091 1198 66.9091Z" fill="#050505"/>
<path d="M14 36L1189 36.0001" stroke="#050505"/>
<path d="M1188.63 46.8975L1188.63 36.0011" stroke="#050505"/>
<path d="M601 47L601 36.1037" stroke="#050505"/>
<path d="M14 46.8975L14 36.0011" stroke="#050505"/>
<path d="M307 46.8975L307 36.0011" stroke="#050505"/>
<path d="M895 47L895 36.1037" stroke="#050505"/>
</svg>
