<svg width="78" height="78" viewBox="0 0 78 78" fill="none" xmlns="http://www.w3.org/2000/svg">
<path fill-rule="evenodd" clip-rule="evenodd" d="M40.6251 68.25C53.0204 68.25 63.7097 60.9457 68.6234 50.4065C70.4227 48.1761 71.5 45.3389 71.5 42.25C71.5 35.0703 65.6797 29.25 58.5 29.25C51.3203 29.25 45.5 35.0703 45.5 42.25C45.5 49.4297 51.3203 55.25 58.5 55.25C59.7523 55.25 60.9633 55.0729 62.1092 54.7424C57.0447 60.9996 49.3021 65 40.6251 65C34.1039 65 28.1104 62.7404 23.3849 58.9614C22.7014 58.1887 21.8497 57.2922 21.4796 57.1554C21.1682 57.0402 20.8426 56.977 20.5572 56.977C19.6597 56.977 18.9322 57.7045 18.9322 58.602C18.9322 59.1265 19.1807 59.5929 19.5664 59.8901L19.5123 59.9032C25.0338 65.0799 32.4593 68.25 40.6251 68.25ZM65.8748 48.6279C67.3547 46.9182 68.25 44.6887 68.25 42.25C68.25 36.8652 63.8848 32.5 58.5 32.5C53.1152 32.5 48.75 36.8652 48.75 42.25C48.75 47.6348 53.1152 52 58.5 52C61.4315 52 64.0609 50.7062 65.8482 48.6585L65.8603 48.6314L65.8748 48.6279Z" fill="#050505"/>
<path fill-rule="evenodd" clip-rule="evenodd" d="M40.6251 6.5C52.7318 6.5 63.2109 13.4681 68.2708 23.6125C68.2708 23.3144 68.3163 23.8113 68.2708 23.6125C68.2708 24.51 68.4505 26 66.625 26C65.7275 26 65 24.375 65 24.375C65 24.3673 64.9981 24.3596 64.9945 24.3528C60.3406 15.6618 51.1733 9.75 40.6251 9.75C29.9993 9.75 20.7747 15.7493 16.1537 24.5455C18.0874 23.4046 20.3423 22.75 22.75 22.75C29.9297 22.75 35.75 28.5703 35.75 35.75C35.75 42.9297 29.9297 48.75 22.75 48.75C16.2697 48.75 10.8969 44.0084 9.91158 37.8054L9.75364 37.8438C9.75132 37.6878 9.75015 37.5316 9.75015 37.375C9.75015 37.0458 9.7553 36.7178 9.76553 36.3911C9.75522 36.1787 9.75 35.965 9.75 35.75C9.75 34.7327 9.86685 33.7427 10.0879 32.7927C12.3015 17.914 25.1304 6.5 40.6251 6.5ZM13.0186 36.3567C13.3318 41.4589 17.569 45.5 22.75 45.5C28.1348 45.5 32.5 41.1348 32.5 35.75C32.5 30.3652 28.1348 26 22.75 26C18.1717 26 14.3304 29.1556 13.2825 33.4104C13.1436 34.3772 13.0547 35.3602 13.0186 36.3567Z" fill="#050505"/>
</svg>
