<svg width="60" height="60" viewBox="0 0 60 60" fill="none" xmlns="http://www.w3.org/2000/svg">
<path d="M8.57 8.5C5 12.0333 5 17.6833 5 29V31C5 42.3 5 47.95 8.57 51.5C12.174 55 17.937 55 29.48 55H31.52C43.046 55 48.809 55 52.43 51.5C56 47.9667 56 42.3167 56 31V29C56 17.7 56 12.05 52.43 8.5C48.826 5 43.063 5 31.52 5H29.48C17.954 5 12.191 5 8.57 8.5ZM13.602 20.2167H19.45C19.637 29.75 23.921 33.7833 27.321 34.6167V20.2167H32.812V28.4333C36.161 28.0833 39.697 24.3333 40.887 20.2H46.361C45.9143 22.3395 45.0226 24.3657 43.7415 26.1523C42.4604 27.9388 40.8173 29.4472 38.915 30.5833C41.0384 31.6191 42.9136 33.0845 44.4169 34.883C45.9202 36.6814 47.0173 38.772 47.636 41.0167H41.601C40.309 37.0667 37.079 34 32.812 33.5833V41.0167H32.132C20.504 41.0167 13.874 33.2167 13.602 20.2167Z" fill="#050505"/>
</svg>
