<svg width="78" height="78" viewBox="0 0 78 78" fill="none" xmlns="http://www.w3.org/2000/svg">
<path d="M22.0233 8.29655C22.826 7.89519 23.8021 8.22055 24.2034 9.02327L27.6006 15.8176C30.4899 21.5962 32.1241 27.8287 32.4944 34.125H45.5056C45.8759 27.8287 47.5101 21.5962 50.3994 15.8176L53.7966 9.02327C54.1979 8.22055 55.174 7.89519 55.9767 8.29655C56.7794 8.6979 57.1048 9.674 56.7034 10.4767L53.3063 17.2711C50.6454 22.5928 49.1279 28.3279 48.7616 34.125H58.5C59.3975 34.125 60.125 34.8525 60.125 35.75C60.125 36.6475 59.3975 37.375 58.5 37.375H48.6769C48.7417 43.281 49.9986 49.1831 52.4558 54.7119L56.7349 64.34C57.0994 65.1601 56.7301 66.1204 55.91 66.4849C55.0899 66.8494 54.1296 66.4801 53.7651 65.66L49.4859 56.0318C46.8417 50.0824 45.4917 43.7304 45.4267 37.375H32.5733C32.5083 43.7304 31.1583 50.0824 28.5141 56.0318L24.2349 65.66C23.8704 66.4801 22.9101 66.8494 22.09 66.4849C21.2699 66.1204 20.9006 65.1601 21.2651 64.34L25.5442 54.7119C28.0014 49.1831 29.2583 43.281 29.3231 37.375H19.5C18.6025 37.375 17.875 36.6475 17.875 35.75C17.875 34.8525 18.6025 34.125 19.5 34.125H29.2384C28.8721 28.3279 27.3546 22.5928 24.6937 17.2711L21.2966 10.4767C20.8952 9.674 21.2206 8.6979 22.0233 8.29655Z" fill="#050505"/>
</svg>
