<svg width="78" height="78" viewBox="0 0 78 78" fill="none" xmlns="http://www.w3.org/2000/svg">
<path d="M17.519 11.9849C16.9583 11.2841 15.9357 11.1705 15.2349 11.7311C14.5341 12.2918 14.4205 13.3144 14.9811 14.0152L21.1251 21.6951V55.25H24.3751V21.7162L29.6472 15.4284C30.2979 14.6523 31.4923 14.6541 32.1407 15.4322L37.3751 21.7134V55.2501H40.6251V21.7134L45.8767 15.4114C46.5264 14.6318 47.7237 14.6318 48.3734 15.4114L53.2484 21.2614C53.4918 21.5535 53.6251 21.9216 53.6251 22.3017V47.1195L53.625 47.125V54.758C53.625 56.4592 54.1286 58.1224 55.0723 59.5379C56.6704 61.9351 59.3609 63.375 62.2421 63.375H65V67.4654C65 67.755 65.3501 67.9 65.5549 67.6952L71.2702 61.9799C71.3972 61.8529 71.3972 61.6472 71.2702 61.5202L65.5549 55.8049C65.3501 55.6001 65 55.7451 65 56.0347V60.125H62.2421C60.4476 60.125 58.7718 59.2282 57.7764 57.7351C57.1887 56.8535 56.875 55.8176 56.875 54.758L56.8751 22.3017C56.8751 21.1613 56.4752 20.0569 55.7451 19.1808L50.8701 13.3308C48.9211 10.992 45.329 10.992 43.38 13.3308L39.0001 18.5867L34.6374 13.3516C32.6923 11.0174 29.109 11.012 27.1567 13.3403L22.7796 18.5607L17.519 11.9849Z" fill="#050505"/>
</svg>
