<svg width="78" height="78" viewBox="0 0 78 78" fill="none" xmlns="http://www.w3.org/2000/svg">
<path d="M63.2517 12.378C63.1724 12.1863 63.0548 12.0068 62.899 11.851L61.75 11.375H35.75C34.8525 11.375 34.125 12.1025 34.125 13C34.125 13.8975 34.8525 14.625 35.75 14.625H57.8269L27.625 44.8269L17.399 34.601C16.7644 33.9664 15.7356 33.9664 15.101 34.601C14.4663 35.2356 14.4663 36.2644 15.101 36.899L25.3269 47.125L8.60095 63.851C7.96635 64.4856 7.96635 65.5144 8.60095 66.149C9.23555 66.7836 10.2644 66.7836 10.899 66.149L27.625 49.4231L37.851 59.649C38.4856 60.2837 39.5144 60.2837 40.149 59.649C40.7836 59.0145 40.7836 57.9855 40.149 57.351L29.9231 47.125L60.125 16.9231V37.375C60.125 38.2725 60.8525 39 61.75 39C62.6475 39 63.375 38.2725 63.375 37.375V13C63.375 12.7797 63.3312 12.5696 63.2517 12.378Z" fill="#050505"/>
</svg>
