<svg width="78" height="78" viewBox="0 0 78 78" fill="none" xmlns="http://www.w3.org/2000/svg">
<path fill-rule="evenodd" clip-rule="evenodd" d="M8.125 13C8.125 12.1025 8.85254 11.375 9.75 11.375H10.9948C15.8176 11.375 20.4967 13.0164 24.2626 16.0291C26.2339 17.6061 27.9082 19.5219 29.207 21.6865L30.6165 24.0357C31.7755 25.9674 32.7196 28.0201 33.432 30.1572L33.9157 31.6084C35.5272 31.1312 37.2337 30.875 39 30.875C40.7663 30.875 42.4728 31.1312 44.0843 31.6084L44.568 30.1572C45.2804 28.0201 46.2245 25.9674 47.3835 24.0357L48.793 21.6865C50.0918 19.5219 51.7661 17.6061 53.7374 16.0291C57.5033 13.0164 62.1824 11.375 67.0052 11.375H68.25C69.1475 11.375 69.875 12.1025 69.875 13C69.875 13.8975 69.1475 14.625 68.25 14.625H67.0052C62.9204 14.625 58.9573 16.0152 55.7676 18.5669C54.098 19.9026 52.6799 21.5252 51.5799 23.3586L50.1704 25.7078C49.1334 27.4361 48.2886 29.2728 47.6513 31.1849L47.1078 32.8153C52.9049 35.7708 56.875 41.7968 56.875 48.75C56.875 58.6221 48.8721 66.625 39 66.625C29.1279 66.625 21.125 58.6221 21.125 48.75C21.125 41.7968 25.0951 35.7708 30.8922 32.8153L30.3487 31.1849C29.7114 29.2728 28.8666 27.4361 27.8296 25.7078L26.4201 23.3586C25.3201 21.5252 23.902 19.9026 22.2324 18.5669C19.0427 16.0152 15.0796 14.625 10.9948 14.625H9.75C8.85254 14.625 8.125 13.8975 8.125 13ZM39 63.375C47.0772 63.375 53.625 56.8272 53.625 48.75C53.625 40.6728 47.0772 34.125 39 34.125C30.9228 34.125 24.375 40.6728 24.375 48.75C24.375 56.8272 30.9228 63.375 39 63.375Z" fill="#050505"/>
</svg>
