<svg width="78" height="78" viewBox="0 0 78 78" fill="none" xmlns="http://www.w3.org/2000/svg">
<path d="M50.375 48.75C50.375 47.8526 51.1026 47.125 52 47.125H51.8984C55.9467 43.5519 58.5 38.3241 58.5 32.5C58.5 21.7305 49.7695 13 39 13C28.2305 13 19.5 21.7305 19.5 32.5C19.5 38.3241 22.0533 43.5519 26.1016 47.125H26C26.8974 47.125 27.625 47.8526 27.625 48.75C27.625 49.6474 26.8974 50.375 26 50.375H13C12.1026 50.375 11.375 49.6474 11.375 48.75C11.375 47.8526 12.1026 47.125 13 47.125H21.5732C18.251 43.1705 16.25 38.0689 16.25 32.5C16.25 19.9355 26.4355 9.75 39 9.75C51.5645 9.75 61.75 19.9355 61.75 32.5C61.75 38.0689 59.749 43.1705 56.4268 47.125H65C65.8974 47.125 66.625 47.8526 66.625 48.75C66.625 49.6474 65.8974 50.375 65 50.375H52C51.1026 50.375 50.375 49.6474 50.375 48.75Z" fill="#050505"/>
<path d="M13 60.125C12.1026 60.125 11.375 60.8526 11.375 61.75C11.375 62.6474 12.1026 63.375 13 63.375H65C65.8974 63.375 66.625 62.6474 66.625 61.75C66.625 60.8526 65.8974 60.125 65 60.125H13Z" fill="#050505"/>
</svg>
