<svg width="78" height="78" viewBox="0 0 78 78" fill="none" xmlns="http://www.w3.org/2000/svg">
<path d="M37.7 28.8166C38.35 27.95 39.65 27.95 40.3 28.8166L44.85 34.8833C46.8 37.4833 50.7 37.4833 52.65 34.8833L56.9561 29.1418C57.6409 28.2287 59.0291 28.2876 59.6341 29.2556L65.247 38.2362C65.7226 38.9973 66.7252 39.2286 67.4862 38.753C68.2473 38.2773 68.4786 37.2748 68.003 36.5137L62.3901 27.5331C60.5752 24.6292 56.4107 24.4524 54.3561 27.1918L50.05 32.9333C49.4 33.8 48.1 33.8 47.45 32.9333L42.9 26.8666C40.95 24.2666 37.05 24.2666 35.1 26.8666L30.55 32.9333C29.9 33.8 28.6 33.8 27.95 32.9333L23.6439 27.1918C21.5893 24.4524 17.4248 24.6292 15.6099 27.5331L9.99698 36.5137C9.52132 37.2748 9.75268 38.2773 10.5137 38.753C11.2748 39.2286 12.2773 38.9973 12.753 38.2362L18.3659 29.2556C18.9708 28.2876 20.359 28.2287 21.0439 29.1418L25.35 34.8833C27.3 37.4833 31.2 37.4833 33.15 34.8833L37.7 28.8166Z" fill="#050505"/>
<path d="M37.7 46.6916C38.35 45.825 39.65 45.825 40.3 46.6916L44.85 52.7583C46.8 55.3583 50.7 55.3583 52.65 52.7583L56.9561 47.0168C57.6409 46.1037 59.0291 46.1626 59.6341 47.1306L65.247 56.1112C65.7226 56.8723 66.7252 57.1036 67.4862 56.628C68.2473 56.1523 68.4786 55.1498 68.003 54.3887L62.3901 45.4081C60.5752 42.5042 56.4107 42.3274 54.3561 45.0668L50.05 50.8083C49.4 51.675 48.1 51.675 47.45 50.8083L42.9 44.7416C40.95 42.1416 37.05 42.1416 35.1 44.7416L30.55 50.8083C29.9 51.675 28.6 51.675 27.95 50.8083L23.6439 45.0668C21.5893 42.3274 17.4248 42.5042 15.6099 45.4081L9.99698 54.3887C9.52132 55.1498 9.75268 56.1523 10.5137 56.628C11.2748 57.1036 12.2773 56.8723 12.753 56.1112L18.3659 47.1306C18.9708 46.1626 20.359 46.1037 21.0439 47.0168L25.35 52.7583C27.3 55.3583 31.2 55.3583 33.15 52.7583L37.7 46.6916Z" fill="#050505"/>
</svg>
